HIERARCHY
ROOT Pelvis
{
	OFFSET 0.000000 0.000000 0.000000
	CHANNELS 6 Xposition Yposition Zposition Xrotation Yrotation Zrotation
	JOINT LeftUpLeg_virtual
	{
		OFFSET 0.000000 0.000000 0.000000
		CHANNELS 3 Xrotation Yrotation Zrotation
		JOINT LeftUpLeg
		{
			OFFSET 18.735201 -5.666702 -4.541200
			CHANNELS 3 Xrotation Yrotation Zrotation
			JOINT LeftLeg
			{
				OFFSET -0.021200 -31.938179 0.493100
				CHANNELS 3 Xrotation Yrotation Zrotation
				JOINT LeftFoot
				{
					OFFSET 0.021200 -31.938179 -4.336299
					CHANNELS 3 Xrotation Yrotation Zrotation
					JOINT LeftToeBase
					{
						OFFSET 0.943001 -26.722000 15.023500
						CHANNELS 3 Xrotation Yrotation Zrotation
						End Site
						{
							OFFSET 0 0 0
						}
					}
				}
			}
		}
	}
	JOINT RightUpLeg_virtual
	{
		OFFSET 0.000000 0.000000 0.000000
		CHANNELS 3 Xrotation Yrotation Zrotation
		JOINT RightUpLeg
		{
			OFFSET -18.735201 -5.666702 -4.541200
			CHANNELS 3 Xrotation Yrotation Zrotation
			JOINT RightLeg
			{
				OFFSET 0.018946 -31.938133 0.493100
				CHANNELS 3 Xrotation Yrotation Zrotation
				JOINT RightFoot
				{
					OFFSET -0.018946 -31.938126 -4.336299
					CHANNELS 3 Xrotation Yrotation Zrotation
					JOINT RightToeBase
					{
						OFFSET -0.943001 -26.722004 15.023500
						CHANNELS 3 Xrotation Yrotation Zrotation
						End Site
						{
							OFFSET 0 0 0
						}
					}
				}
			}
		}
	}
	JOINT Hips_virtual
	{
		OFFSET 0.000000 0.000000 0.000000
		CHANNELS 3 Xrotation Yrotation Zrotation
		JOINT Hips
		{
			OFFSET -0.000000 -0.000000 -0.000000
			CHANNELS 3 Xrotation Yrotation Zrotation
			JOINT Spine
			{
				OFFSET 0.000000 10.199997 -0.299500
				CHANNELS 3 Xrotation Yrotation Zrotation
				JOINT Spine1
				{
					OFFSET 0.000000 11.900002 -1.516600
					CHANNELS 3 Xrotation Yrotation Zrotation
					JOINT Spine2
					{
						OFFSET 0.000000 13.600006 -2.842500
						CHANNELS 3 Xrotation Yrotation Zrotation
						JOINT Neck_virtual
						{
							OFFSET 0.000000 0.000000 0.000000
							CHANNELS 3 Xrotation Yrotation Zrotation
							JOINT Neck
							{
								OFFSET 0.000000 9.624100 -2.890100
								CHANNELS 3 Xrotation Yrotation Zrotation
								JOINT Head
								{
									OFFSET 0.000000 14.068802 -1.351900
									CHANNELS 3 Xrotation Yrotation Zrotation
									End Site
									{
										OFFSET 0 0 0
									}
								}
							}
						}
						JOINT LeftShoulder_virtual
						{
							OFFSET 0.000000 0.000000 0.000000
							CHANNELS 3 Xrotation Yrotation Zrotation
							JOINT LeftShoulder
							{
								OFFSET 15.263000 10.923401 -0.547700
								CHANNELS 3 Xrotation Yrotation Zrotation
								JOINT LeftArm
								{
									OFFSET 25.438599 -2.830597 -13.032500
									CHANNELS 3 Xrotation Yrotation Zrotation
									JOINT LeftForeArm
									{
										OFFSET 29.960503 0.000000 0.000000
										CHANNELS 3 Xrotation Yrotation Zrotation
										JOINT LeftHand
										{
											OFFSET 27.849251 0.000000 0.000000
											CHANNELS 3 Xrotation Yrotation Zrotation
											End Site
											{
												OFFSET 0 0 0
											}
										}
									}
								}
							}
						}
						JOINT RightShoulder_virtual
						{
							OFFSET 0.000000 0.000000 0.000000
							CHANNELS 3 Xrotation Yrotation Zrotation
							JOINT RightShoulder
							{
								OFFSET -15.263000 10.923401 -0.547700
								CHANNELS 3 Xrotation Yrotation Zrotation
								JOINT RightArm
								{
									OFFSET -25.438599 -2.830597 -13.032500
									CHANNELS 3 Xrotation Yrotation Zrotation
									JOINT RightForeArm
									{
										OFFSET -29.960503 0.000000 0.000000
										CHANNELS 3 Xrotation Yrotation Zrotation
										JOINT RightHand
										{
											OFFSET -27.849251 0.000000 0.000000
											CHANNELS 3 Xrotation Yrotation Zrotation
											End Site
											{
												OFFSET 0 0 0
											}
										}
									}
								}
							}
						}
					}
				}
			}
		}
	}
}
MOTION
Frames: 10
Frame Time: 0.03333333
4.676920 90.485458 -0.840786 0.000000 0.000000 0.000000 11.541351 -44.318461 2.119814 -29.507595 0.927485 12.642696 52.455662 14.490098 -4.769631 -6.089077 14.772051 -1.440260 0.000000 0.000000 0.000000 8.477188 8.139767 8.757313 -18.987228 -5.207298 -4.903846 38.020825 3.290265 -4.560209 -12.193179 2.288570 5.798284 0.000000 0.000000 0.000000 5.139367 -1.718769 -1.067353 -2.969857 -11.248954 -13.453548 27.790143 -2.548694 14.289721 13.851359 -2.230899 8.695511 0.000000 0.000000 0.000000 10.272867 -0.409436 8.321000 3.860631 -1.077046 3.566285 0.000000 0.000000 0.000000 17.197955 -2.137792 5.925742 2.787407 -23.076115 5.016643 -21.184590 -13.499478 -43.108975 0.669639 -49.366599 -4.927411 0.000000 0.000000 0.000000 15.635242 -0.134458 8.309211 2.512630 1.775013 23.172971 -7.792231 26.533472 34.175903 7.161889 58.686905 -7.420700 0.000000 0.000000 0.000000 
4.610350 90.497604 -0.830294 0.000000 0.000000 0.000000 11.545234 -44.199165 2.161931 -29.510413 0.941362 12.704679 52.395010 14.406976 -4.728538 -6.087314 14.692104 -1.455355 0.000000 0.000000 0.000000 8.476161 8.187388 8.802706 -18.978331 -5.204405 -4.849731 37.989792 3.245605 -4.564369 -12.209402 2.245390 5.755227 0.000000 0.000000 0.000000 5.087582 -1.735305 -1.069588 -3.036165 -11.099856 -13.482348 27.760004 -2.540594 14.357747 13.825077 -2.230301 8.740274 0.000000 0.000000 0.000000 10.264263 -0.424955 8.340764 3.863418 -1.071652 3.570253 0.000000 0.000000 0.000000 17.195551 -2.152981 5.940834 2.791433 -23.059202 5.054641 -21.238743 -13.670255 -43.141035 0.691106 -49.540673 -4.943229 0.000000 0.000000 0.000000 15.607718 -0.158323 8.302798 2.511939 1.724327 23.093568 -7.756102 26.379729 34.265741 7.104649 58.641696 -7.335065 0.000000 0.000000 0.000000 
4.540863 90.513985 -0.819273 0.000000 0.000000 0.000000 11.548452 -44.062227 2.196017 -29.506813 0.961984 12.760804 52.319987 14.326296 -4.677611 -6.089892 14.611368 -1.456862 0.000000 0.000000 0.000000 8.475332 8.242569 8.846196 -18.966860 -5.198996 -4.795763 37.949931 3.195401 -4.568385 -12.230280 2.196319 5.707561 0.000000 0.000000 0.000000 5.035338 -1.746590 -1.072930 -3.107046 -10.945148 -13.516367 27.727433 -2.535419 14.430245 13.797616 -2.231459 8.787383 0.000000 0.000000 0.000000 10.256552 -0.441814 8.361788 3.866409 -1.066774 3.574656 0.000000 0.000000 0.000000 17.194228 -2.168459 5.957927 2.798021 -23.041167 5.099460 -21.282374 -13.830360 -43.179821 0.714842 -49.702860 -4.962020 0.000000 0.000000 0.000000 15.578181 -0.185811 8.296152 2.512195 1.659862 23.011975 -7.720217 26.217751 34.371404 7.042816 58.596473 -7.241453 0.000000 0.000000 0.000000 
4.469018 90.534508 -0.810760 0.000000 0.000000 0.000000 11.552119 -43.909954 2.223215 -29.496418 0.988718 12.811537 52.233506 14.248797 -4.619805 -6.096587 14.531340 -1.447808 0.000000 0.000000 0.000000 8.474942 8.302465 8.887425 -18.953037 -5.191779 -4.742784 37.901987 3.139988 -4.572195 -12.255800 2.141591 5.655800 0.000000 0.000000 0.000000 4.982387 -1.752493 -1.076374 -3.181001 -10.784276 -13.548000 27.691972 -2.530920 14.505350 13.768761 -2.233221 8.835948 0.000000 0.000000 0.000000 10.248721 -0.459119 8.383416 3.869309 -1.062541 3.579270 0.000000 0.000000 0.000000 17.192534 -2.183087 5.976137 2.805925 -23.021393 5.148907 -21.317662 -13.979846 -43.222018 0.740061 -49.852314 -4.982718 0.000000 0.000000 0.000000 15.547093 -0.214260 8.290512 2.511986 1.591793 22.934853 -7.692289 26.051791 34.489389 6.973882 58.545253 -7.139666 0.000000 0.000000 0.000000 
4.395309 90.558487 -0.803928 0.000000 0.000000 0.000000 11.557358 -43.750234 2.244978 -29.479916 1.019560 12.856902 52.140373 14.174105 -4.558298 -6.106176 14.452516 -1.432148 0.000000 0.000000 0.000000 8.474889 8.364635 8.926273 -18.937692 -5.183391 -4.691443 37.846850 3.079706 -4.575735 -12.285741 2.081475 5.600477 0.000000 0.000000 0.000000 4.928481 -1.750209 -1.079287 -3.259561 -10.611647 -13.573708 27.650902 -2.526153 14.583552 13.736966 -2.235080 8.886286 0.000000 0.000000 0.000000 10.240383 -0.476914 8.405035 3.872046 -1.058952 3.583749 0.000000 0.000000 0.000000 17.189305 -2.196522 5.995405 2.814239 -22.998601 5.202766 -21.345934 -14.116229 -43.266752 0.765850 -49.985647 -5.005733 0.000000 0.000000 0.000000 15.514623 -0.243757 8.285110 2.511915 1.519808 22.859077 -7.678413 25.877802 34.619668 6.894705 58.486705 -7.028472 0.000000 0.000000 0.000000 
4.320032 90.584625 -0.798592 0.000000 0.000000 0.000000 11.564108 -43.590978 2.262433 -29.459361 1.052302 12.897060 52.043528 14.101504 -4.495893 -6.118747 14.374929 -1.413829 0.000000 0.000000 0.000000 8.474532 8.426251 8.962952 -18.922380 -5.174586 -4.642147 37.784767 3.014963 -4.578851 -12.320499 2.016199 5.542275 0.000000 0.000000 0.000000 4.873356 -1.745836 -1.082580 -3.346612 -10.436859 -13.602635 27.605518 -2.521428 14.664025 13.703035 -2.237123 8.937957 0.000000 0.000000 0.000000 10.231991 -0.494829 8.426455 3.874824 -1.055807 3.588005 0.000000 0.000000 0.000000 17.185512 -2.208538 6.015788 2.823819 -22.971798 5.261340 -21.363968 -14.240127 -43.316148 0.793769 -50.104492 -5.031137 0.000000 0.000000 0.000000 15.482480 -0.273903 8.279693 2.513509 1.445435 22.784037 -7.668507 25.703496 34.769208 6.811540 58.428177 -6.909001 0.000000 0.000000 0.000000 
4.243119 90.612000 -0.793430 0.000000 0.000000 0.000000 11.573154 -43.436110 2.277769 -29.434806 1.085304 12.933205 51.944989 14.030155 -4.434343 -6.133862 14.298366 -1.395603 0.000000 0.000000 0.000000 8.474258 8.487924 8.997452 -18.906507 -5.165240 -4.594785 37.716107 2.946884 -4.581388 -12.360046 1.946793 5.482335 0.000000 0.000000 0.000000 4.818005 -1.740128 -1.086321 -3.437482 -10.262077 -13.635271 27.555452 -2.517037 14.746687 13.666718 -2.239499 8.990913 0.000000 0.000000 0.000000 10.222281 -0.512747 8.447904 3.877041 -1.053023 3.592141 0.000000 0.000000 0.000000 17.181373 -2.218828 6.037193 2.834898 -22.939853 5.324285 -21.370070 -14.351035 -43.367453 0.825234 -50.207372 -5.057142 0.000000 0.000000 0.000000 15.450129 -0.304373 8.274618 2.516036 1.369921 22.711552 -7.670091 25.527047 34.937401 6.721350 58.369977 -6.780750 0.000000 0.000000 0.000000 
4.165514 90.641052 -0.786781 0.000000 0.000000 0.000000 11.584451 -43.292877 2.291617 -29.407861 1.116686 12.965037 51.849414 13.958882 -4.376225 -6.149666 14.222542 -1.381349 0.000000 0.000000 0.000000 8.473863 8.548986 9.029780 -18.890669 -5.155536 -4.549589 37.641835 2.875999 -4.583501 -12.403992 1.873886 5.420914 0.000000 0.000000 0.000000 4.763141 -1.731267 -1.090727 -3.527444 -10.082327 -13.671722 27.500780 -2.512424 14.831804 13.628119 -2.241955 9.045355 0.000000 0.000000 0.000000 10.211787 -0.530318 8.469680 3.879054 -1.050415 3.596296 0.000000 0.000000 0.000000 17.176780 -2.227210 6.059523 2.847582 -22.902507 5.391131 -21.362151 -14.449800 -43.420780 0.861674 -50.294463 -5.083192 0.000000 0.000000 0.000000 15.418247 -0.334879 8.270328 2.520625 1.294155 22.643612 -7.683304 25.346694 35.128107 6.622947 58.310978 -6.641648 0.000000 0.000000 0.000000 
4.086812 90.671097 -0.780075 0.000000 0.000000 0.000000 11.599722 -43.156636 2.306340 -29.376230 1.146987 12.994865 51.752958 13.888318 -4.320831 -6.168614 14.147811 -1.370074 0.000000 0.000000 0.000000 8.475308 8.608507 9.058667 -18.872253 -5.145639 -4.507732 37.565129 2.802562 -4.585631 -12.449691 1.798230 5.357620 0.000000 0.000000 0.000000 4.709212 -1.719329 -1.095800 -3.615903 -9.896490 -13.713740 27.440910 -2.507608 14.921322 13.586725 -2.244522 9.102310 0.000000 0.000000 0.000000 10.201274 -0.547609 8.492838 3.881227 -1.047996 3.600989 0.000000 0.000000 0.000000 17.171155 -2.234286 6.083549 2.862118 -22.862035 5.464563 -21.340236 -14.541174 -43.473601 0.904312 -50.370033 -5.107266 0.000000 0.000000 0.000000 15.386244 -0.365521 8.267564 2.526640 1.217939 22.583022 -7.709847 25.157689 35.343572 6.514079 58.247887 -6.489463 0.000000 0.000000 0.000000 
4.006944 90.701500 -0.772228 0.000000 0.000000 0.000000 11.620613 -43.028553 2.323763 -29.338835 1.175712 13.023815 51.656038 13.818649 -4.268526 -6.190563 14.074482 -1.362118 0.000000 0.000000 0.000000 8.479211 8.666531 9.084255 -18.850525 -5.135653 -4.469075 37.485950 2.728017 -4.587526 -12.497698 1.721053 5.293988 0.000000 0.000000 0.000000 4.655300 -1.707629 -1.101586 -3.706648 -9.710643 -13.762300 27.375263 -2.503215 15.014569 13.542214 -2.247493 9.161273 0.000000 0.000000 0.000000 10.190395 -0.564729 8.517196 3.883438 -1.045805 3.606065 0.000000 0.000000 0.000000 17.164018 -2.240397 6.109108 2.878068 -22.819252 5.543516 -21.303213 -14.624977 -43.523892 0.954042 -50.433642 -5.128185 0.000000 0.000000 0.000000 15.353068 -0.396625 8.266415 2.533379 1.139985 22.530093 -7.751459 24.951205 35.583298 6.391389 58.173213 -6.321959 0.000000 0.000000 0.000000 
